<?xml version="1.0" encoding="utf-8"?>
<!-- Generator: Adobe Illustrator 19.1.0, SVG Export Plug-In . SVG Version: 6.00 Build 0)  -->
<svg version="1.1" id="Layer_1" xmlns="http://www.w3.org/2000/svg" xmlns:xlink="http://www.w3.org/1999/xlink" x="0px" y="0px"
	 viewBox="0 0 864 864" style="enable-background:new 0 0 864 864;" xml:space="preserve">
<style type="text/css">
	.st0{fill:none;}
	.st1{fill:#010101;}
	.st2{font-family:'AngeliquemadouceColombe';}
	.st3{font-size:368.8968px;}
	.st4{font-family:'Lato-Light';}
	.st5{font-size:44.2676px;}
	.st6{letter-spacing:25.4;}
	.st7{letter-spacing:26.3;}
	.st8{fill:#2EAD54;}
	.st9{fill:#ED1D73;}
	.st10{fill:#B13B93;}
	.st11{fill:#5A387B;}
	.st12{fill:#0F51A2;}
	.st13{fill:#A6CD3A;}
	.st14{fill:#FAD020;}
	.st15{fill:#F26922;}
	.st16{fill:#ED2225;}
	.st17{fill:#FEF8FB;}
</style>
<g>
	<rect x="52.8" y="587.2" class="st0" width="758.3" height="174"/>
	<text transform="matrix(1 0 0 1 52.8378 711.9227)" class="st1 st2 st3">Sylvia Padilla</text>
	<rect x="107.8" y="746.1" class="st0" width="685.3" height="87.7"/>
	<text transform="matrix(1.14 0 0 1 159.6295 778.3192)"><tspan x="0" y="0" class="st1 st4 st5 st6">FOTOGRAFI</tspan><tspan x="480.3" y="0" class="st1 st4 st5 st7">A</tspan></text>
	<g>
		<path class="st8" d="M186.5,202.9c0,0-39.4,95.9-13.1,192.7c91.8,19.7,163.6,3.7,211.2-4.5c47.5-8.2,93.8-34.4,93.8-34.4
			s-103.6-23.2-136.9-38.1C297.5,298.8,240.6,261.1,186.5,202.9z"/>
		<path class="st9" d="M585.3,170.5c0,0,43,39.8,54.1,97.1c-65.2-0.4-122.1-6.6-184,16.4c-14.3,8.3-14.5,9.4-14.5,9.4l8.8-30.7
			C449.7,262.8,571.4,162.3,585.3,170.5z"/>
		<path class="st10" d="M464.8,141c0,0,31.1-12.7,100.4,36.1c-50.4,34.8-106.6,74.2-117.6,100c-12,28,0.3,3.1-9.9,26.8
			C437.8,304,422.9,196.9,464.8,141z"/>
		<path class="st11" d="M457.2,155.4c0,0-80-7.7-99.7,26.1c-11.5,19.7,52.8,122.3,62.1,135c9.4,12.7,23.5,14,23.5,14
			S424.2,202.9,457.2,155.4z"/>
		<path class="st12" d="M371.8,35.7c0,0-132.8,4.9-207.4,145.1c92.6,94.3,140.3,155.9,294.9,171.4c-11-13.2-22.7-27.2-28.4-37
			C383.4,233.8,361.1,232.4,371.8,35.7z"/>
		<path class="st13" d="M233.7,403c0,0,53.3,89.7,119.7,122.1c34.2-15.9,165.8-138.2,161.1-193.5c-25.8,24.6-66,39.4-101.2,52.5
			C403.7,387.6,317.7,408.3,233.7,403z"/>
		<path class="st14" d="M514.6,295.3l3.2,2c0,0,35.2,54,35.7,102c0.4,48-13.9,122.6-13.9,122.6s-122,28.2-160.2-14.4
			C527.7,390.1,514.6,295.3,514.6,295.3z"/>
		<path class="st15" d="M514.6,292.4c0,0,63.3,22.9,95,68.4c26.2,37.7,36.1,46.4,41.3,60.9c-13,29.1-78.4,64.6-106.4,71
			c2.1-27.1,13.6-72.4,2.9-125.7C542.8,344.1,517.2,305.7,514.6,292.4z"/>
		<path class="st16" d="M472.4,274.2c0,0,144.5-23.2,185.3-1.4c13.5,29.5-2.2,116.8-23.1,122.3C601.4,348.1,472.4,274.2,472.4,274.2
			z"/>
		<polygon class="st17" points="474.3,366.9 434.1,341.8 435.7,294.5 477.5,272.2 517.7,297.3 516.1,344.6 		"/>
	</g>
</g>
</svg>
